<svg xmlns="http://www.w3.org/2000/svg" xmlns:xlink="http://www.w3.org/1999/xlink" width="140" zoomAndPan="magnify" viewBox="0 0 104.88 37.5" height="50" preserveAspectRatio="xMidYMid meet" version="1.0"><defs><g/><clipPath id="4e51c02de8"><path d="M 10 4.902344 L 36 4.902344 L 36 32 L 10 32 Z M 10 4.902344 " clip-rule="nonzero"/></clipPath><clipPath id="092e998ef2"><path d="M 5.042969 5 L 36.867188 5 L 36.867188 32 L 5.042969 32 Z M 5.042969 5 " clip-rule="nonzero"/></clipPath></defs><g fill="#ffffff" fill-opacity="1"><g transform="translate(38.245442, 20.664227)"><g><path d="M 6.96875 -2.09375 L 6.96875 0 L 0.921875 0 L 0.921875 -10.4375 L 6.96875 -10.4375 L 6.96875 -8.34375 L 3.21875 -8.34375 L 3.21875 -6.28125 L 6.8125 -6.28125 L 6.8125 -4.1875 L 3.21875 -4.1875 L 3.21875 -2.09375 Z M 6.96875 -2.09375 "/></g></g></g><g fill="#ffffff" fill-opacity="1"><g transform="translate(46.133524, 20.664227)"><g><path d="M -0.09375 -6.75 L 2.578125 -6.75 L 3.90625 -4.6875 L 5.25 -6.75 L 7.921875 -6.75 L 5.390625 -3.40625 L 8.125 0 L 5.328125 0 L 3.90625 -2.09375 L 2.5 0 L -0.3125 0 L 2.4375 -3.40625 Z M -0.09375 -6.75 "/></g></g></g><g fill="#ffffff" fill-opacity="1"><g transform="translate(53.960215, 20.664227)"><g><path d="M 4.375 -5.125 C 4.019531 -5.125 3.742188 -5.03125 3.546875 -4.84375 C 3.347656 -4.65625 3.203125 -4.425781 3.109375 -4.15625 C 3.023438 -3.882812 2.984375 -3.617188 2.984375 -3.359375 C 2.984375 -3.109375 3.023438 -2.84375 3.109375 -2.5625 C 3.191406 -2.28125 3.332031 -2.046875 3.53125 -1.859375 C 3.726562 -1.679688 4.007812 -1.59375 4.375 -1.59375 C 4.726562 -1.59375 5.023438 -1.671875 5.265625 -1.828125 C 5.515625 -1.984375 5.660156 -2.210938 5.703125 -2.515625 L 7.953125 -2.515625 C 7.878906 -2.015625 7.679688 -1.5625 7.359375 -1.15625 C 7.046875 -0.75 6.628906 -0.425781 6.109375 -0.1875 C 5.585938 0.0390625 4.984375 0.15625 4.296875 0.15625 C 3.515625 0.15625 2.84375 -0.00390625 2.28125 -0.328125 C 1.71875 -0.648438 1.285156 -1.078125 0.984375 -1.609375 C 0.679688 -2.140625 0.53125 -2.726562 0.53125 -3.375 C 0.53125 -4.019531 0.6875 -4.609375 1 -5.140625 C 1.3125 -5.679688 1.75 -6.113281 2.3125 -6.4375 C 2.882812 -6.757812 3.546875 -6.921875 4.296875 -6.921875 C 5.035156 -6.921875 5.671875 -6.789062 6.203125 -6.53125 C 6.742188 -6.269531 7.171875 -5.921875 7.484375 -5.484375 C 7.796875 -5.046875 7.96875 -4.566406 8 -4.046875 L 5.703125 -4.046875 C 5.691406 -4.378906 5.566406 -4.640625 5.328125 -4.828125 C 5.085938 -5.023438 4.769531 -5.125 4.375 -5.125 Z M 4.375 -5.125 "/></g></g></g><g fill="#ffffff" fill-opacity="1"><g transform="translate(62.431461, 20.664227)"><g><path d="M 3 -4.1875 L 6.03125 -4.1875 C 6.03125 -4.1875 6.015625 -4.25 5.984375 -4.375 C 5.960938 -4.507812 5.898438 -4.65625 5.796875 -4.8125 C 5.703125 -4.976562 5.550781 -5.125 5.34375 -5.25 C 5.144531 -5.382812 4.875 -5.453125 4.53125 -5.453125 C 4.164062 -5.453125 3.878906 -5.382812 3.671875 -5.25 C 3.472656 -5.125 3.320312 -4.976562 3.21875 -4.8125 C 3.125 -4.65625 3.0625 -4.507812 3.03125 -4.375 C 3.007812 -4.25 3 -4.1875 3 -4.1875 Z M 8.234375 -3.53125 C 8.234375 -3.457031 8.226562 -3.382812 8.21875 -3.3125 C 8.21875 -3.238281 8.21875 -3.164062 8.21875 -3.09375 L 2.984375 -3.09375 C 2.984375 -2.84375 3.039062 -2.59375 3.15625 -2.34375 C 3.269531 -2.09375 3.4375 -1.882812 3.65625 -1.71875 C 3.875 -1.5625 4.132812 -1.484375 4.4375 -1.484375 C 4.84375 -1.484375 5.160156 -1.59375 5.390625 -1.8125 C 5.628906 -2.03125 5.753906 -2.265625 5.765625 -2.515625 L 8.109375 -2.515625 C 7.921875 -1.628906 7.492188 -0.960938 6.828125 -0.515625 C 6.160156 -0.0664062 5.378906 0.15625 4.484375 0.15625 C 3.703125 0.15625 3.015625 0.0078125 2.421875 -0.28125 C 1.828125 -0.570312 1.363281 -0.976562 1.03125 -1.5 C 0.695312 -2.03125 0.53125 -2.65625 0.53125 -3.375 C 0.53125 -4.082031 0.703125 -4.703125 1.046875 -5.234375 C 1.390625 -5.765625 1.859375 -6.175781 2.453125 -6.46875 C 3.046875 -6.769531 3.722656 -6.921875 4.484375 -6.921875 C 5.171875 -6.921875 5.796875 -6.785156 6.359375 -6.515625 C 6.929688 -6.253906 7.382812 -5.875 7.71875 -5.375 C 8.0625 -4.875 8.234375 -4.257812 8.234375 -3.53125 Z M 8.234375 -3.53125 "/></g></g></g><g fill="#ffffff" fill-opacity="1"><g transform="translate(71.209636, 20.664227)"><g><path d="M 3.21875 0 L 0.921875 0 L 0.921875 -11.5 L 3.21875 -11.5 Z M 3.21875 0 "/></g></g></g><g fill="#ffffff" fill-opacity="1"><g transform="translate(75.353179, 20.664227)"><g><path d="M 3.21875 0 L 0.921875 0 L 0.921875 -11.5 L 3.21875 -11.5 Z M 3.21875 0 "/></g></g></g><g fill="#ffffff" fill-opacity="1"><g transform="translate(79.496722, 20.664227)"><g><path d="M 3 -4.1875 L 6.03125 -4.1875 C 6.03125 -4.1875 6.015625 -4.25 5.984375 -4.375 C 5.960938 -4.507812 5.898438 -4.65625 5.796875 -4.8125 C 5.703125 -4.976562 5.550781 -5.125 5.34375 -5.25 C 5.144531 -5.382812 4.875 -5.453125 4.53125 -5.453125 C 4.164062 -5.453125 3.878906 -5.382812 3.671875 -5.25 C 3.472656 -5.125 3.320312 -4.976562 3.21875 -4.8125 C 3.125 -4.65625 3.0625 -4.507812 3.03125 -4.375 C 3.007812 -4.25 3 -4.1875 3 -4.1875 Z M 8.234375 -3.53125 C 8.234375 -3.457031 8.226562 -3.382812 8.21875 -3.3125 C 8.21875 -3.238281 8.21875 -3.164062 8.21875 -3.09375 L 2.984375 -3.09375 C 2.984375 -2.84375 3.039062 -2.59375 3.15625 -2.34375 C 3.269531 -2.09375 3.4375 -1.882812 3.65625 -1.71875 C 3.875 -1.5625 4.132812 -1.484375 4.4375 -1.484375 C 4.84375 -1.484375 5.160156 -1.59375 5.390625 -1.8125 C 5.628906 -2.03125 5.753906 -2.265625 5.765625 -2.515625 L 8.109375 -2.515625 C 7.921875 -1.628906 7.492188 -0.960938 6.828125 -0.515625 C 6.160156 -0.0664062 5.378906 0.15625 4.484375 0.15625 C 3.703125 0.15625 3.015625 0.0078125 2.421875 -0.28125 C 1.828125 -0.570312 1.363281 -0.976562 1.03125 -1.5 C 0.695312 -2.03125 0.53125 -2.65625 0.53125 -3.375 C 0.53125 -4.082031 0.703125 -4.703125 1.046875 -5.234375 C 1.390625 -5.765625 1.859375 -6.175781 2.453125 -6.46875 C 3.046875 -6.769531 3.722656 -6.921875 4.484375 -6.921875 C 5.171875 -6.921875 5.796875 -6.785156 6.359375 -6.515625 C 6.929688 -6.253906 7.382812 -5.875 7.71875 -5.375 C 8.0625 -4.875 8.234375 -4.257812 8.234375 -3.53125 Z M 8.234375 -3.53125 "/></g></g></g><g fill="#ffffff" fill-opacity="1"><g transform="translate(88.274897, 20.664227)"><g><path d="M 3.828125 -4.984375 L 3.828125 0 L 1.53125 0 L 1.53125 -4.984375 L 0.3125 -4.984375 L 0.3125 -6.765625 L 1.53125 -6.765625 L 1.53125 -9.34375 L 3.828125 -9.34375 L 3.828125 -6.765625 L 5.046875 -6.765625 L 5.046875 -4.984375 Z M 3.828125 -4.984375 "/></g></g></g><g clip-path="url(#4e51c02de8)"><path fill="#fc7c00" d="M 10.621094 16.796875 C 9.578125 17.128906 10.753906 14.367188 10.898438 13.957031 C 11.210938 13.230469 11.597656 12.542969 12.011719 11.878906 C 12.832031 10.507812 13.804688 9.261719 14.96875 8.234375 C 15.96875 7.429688 17.019531 6.660156 18.171875 6.144531 C 18.886719 5.902344 19.546875 5.496094 20.273438 5.304688 C 21.585938 4.96875 22.949219 4.90625 24.289062 5.09375 C 25.328125 5.246094 26.355469 5.519531 27.398438 5.660156 C 27.953125 5.75 28.511719 5.859375 29.03125 6.105469 C 30.445312 6.699219 31.601562 7.867188 32.359375 9.296875 C 32.785156 9.953125 33.128906 10.667969 33.355469 11.4375 C 33.5 11.8125 33.660156 12.179688 33.746094 12.578125 C 34.167969 13.679688 34.410156 14.59375 34.035156 15.769531 C 33.546875 17.40625 31.773438 17.867188 30.4375 18.316406 C 29.089844 18.667969 27.722656 18.914062 26.335938 18.972656 C 25.253906 19.007812 24.167969 18.921875 23.085938 18.910156 C 21.328125 18.894531 19.605469 19.390625 17.84375 19.320312 C 16.53125 19.339844 15.210938 19.292969 13.953125 18.824219 C 13.203125 18.558594 12.390625 18.417969 11.742188 17.890625 C 11.347656 17.558594 10.839844 17.320312 10.621094 16.796875 Z M 35.855469 26.367188 C 35.785156 25.664062 35.332031 25.03125 34.703125 24.847656 C 33.9375 24.589844 33.132812 24.890625 32.347656 24.957031 C 29.859375 25.128906 27.355469 25.136719 24.902344 25.691406 C 22.691406 26.027344 20.492188 26.558594 18.253906 26.605469 C 16.929688 26.640625 15.628906 26.324219 14.3125 26.304688 C 13.558594 26.257812 12.820312 26.421875 12.070312 26.472656 C 11.835938 26.496094 11.605469 26.484375 11.378906 26.414062 C 11.234375 26.367188 11.082031 26.320312 10.949219 26.4375 C 10.589844 26.730469 10.367188 27.5625 10.808594 27.867188 C 11.140625 28.382812 11.527344 28.878906 11.886719 29.378906 C 12.203125 29.777344 12.613281 30.066406 12.992188 30.378906 C 14.269531 31.273438 15.808594 31.675781 17.292969 31.890625 C 19.453125 32.089844 21.613281 31.800781 23.773438 31.738281 C 25.617188 31.675781 27.382812 31.042969 29.175781 30.636719 C 30.238281 30.386719 31.332031 30.382812 32.386719 30.085938 C 33.265625 29.78125 34.1875 29.410156 34.863281 28.695312 C 35.425781 28.089844 35.996094 27.289062 35.855469 26.367188 Z M 35.855469 26.367188 " fill-opacity="1" fill-rule="nonzero"/></g><g clip-path="url(#092e998ef2)"><path fill="#aedfc1" d="M 36.429688 19.058594 C 36.242188 18.554688 35.761719 18.289062 35.40625 17.910156 C 35.984375 17.683594 36.339844 16.761719 35.707031 16.394531 C 35.320312 16.199219 34.882812 16.148438 34.46875 16.058594 C 34.304688 16.03125 34.144531 15.992188 33.984375 15.953125 C 34.464844 14.371094 33.164062 12.402344 31.644531 10.085938 C 30.332031 8.222656 29.148438 7.078125 26.9375 6.363281 C 25.914062 6.023438 24.828125 6.027344 23.773438 5.859375 C 20.046875 5.125 17.449219 5.640625 14.195312 7.546875 C 13.535156 7.84375 12.960938 8.273438 12.367188 8.679688 C 11.660156 9.101562 11.097656 9.699219 10.609375 10.351562 C 10.175781 10.917969 9.6875 11.441406 9.300781 12.042969 C 8.59375 13.230469 8.105469 14.613281 8.132812 16.003906 C 8.136719 16.597656 8.441406 17.132812 8.941406 17.441406 C 8.917969 17.492188 8.898438 17.546875 8.878906 17.605469 C 8.574219 17.457031 8.144531 17.421875 7.894531 17.457031 C 7.222656 17.570312 6.445312 17.765625 6.050781 18.367188 C 5.597656 19.140625 5.960938 19.605469 6.730469 19.871094 C 6.25 20.179688 5.796875 20.554688 5.5 21.046875 C 5.042969 21.675781 5.132812 22.585938 6.046875 22.621094 C 6.8125 22.632812 7.542969 22.390625 8.28125 22.214844 C 8.066406 22.675781 7.890625 23.164062 7.679688 23.628906 C 7.488281 24.128906 6.949219 24.917969 7.519531 25.335938 C 7.695312 25.417969 7.882812 25.363281 8.066406 25.335938 C 8.335938 25.300781 8.605469 25.292969 8.878906 25.277344 C 7.6875 26.863281 8.742188 28.824219 10.304688 29.75 C 11.246094 30.304688 12.28125 30.632812 13.355469 30.792969 C 15.035156 31.082031 16.707031 31.234375 18.414062 31.269531 C 20.410156 31.332031 22.394531 31.117188 24.367188 30.824219 C 25.839844 30.660156 27.324219 30.671875 28.785156 30.429688 C 30.3125 30.195312 32.234375 29.371094 33.363281 28.316406 C 34.671875 27.160156 35.070312 25.214844 33.859375 23.84375 C 33.695312 23.703125 33.40625 23.40625 33.113281 23.214844 C 33.117188 23.15625 33.117188 23.097656 33.117188 23.039062 C 34.132812 22.859375 34.664062 21.945312 34.429688 20.9375 C 34.914062 20.921875 35.417969 20.808594 35.828125 20.542969 C 36.242188 20.210938 36.601562 19.597656 36.429688 19.058594 Z M 20.230469 19.691406 C 20.25 19.691406 20.265625 19.691406 20.285156 19.691406 C 20.269531 19.707031 20.253906 19.722656 20.242188 19.734375 C 20.238281 19.71875 20.234375 19.707031 20.230469 19.691406 Z M 16.023438 19.671875 C 16.027344 19.535156 16.023438 19.421875 16.003906 19.332031 C 16.113281 19.347656 16.21875 19.359375 16.328125 19.375 C 16.210938 19.496094 16.105469 19.609375 16.023438 19.671875 Z M 13.8125 19.566406 C 13.707031 19.425781 13.71875 19.238281 13.683594 19.066406 C 13.863281 19.089844 14.042969 19.105469 14.222656 19.125 C 14.265625 19.128906 14.3125 19.132812 14.355469 19.140625 C 14.183594 19.265625 13.996094 19.4375 13.8125 19.566406 Z M 12.554688 19.148438 C 12.566406 19.066406 12.570312 18.988281 12.574219 18.917969 C 12.632812 18.929688 12.695312 18.9375 12.753906 18.949219 C 12.679688 19.019531 12.609375 19.089844 12.554688 19.148438 Z M 9.753906 18.101562 C 9.75 18.058594 9.746094 18.015625 9.742188 17.972656 C 9.761719 17.984375 9.777344 17.992188 9.796875 18.003906 C 9.78125 18.035156 9.769531 18.066406 9.753906 18.101562 Z M 14.480469 19.960938 C 14.496094 20.035156 14.515625 20.105469 14.539062 20.167969 C 14.46875 20.15625 14.398438 20.148438 14.324219 20.136719 C 14.378906 20.082031 14.433594 20.019531 14.480469 19.960938 Z M 15.078125 19.21875 C 15.191406 19.230469 15.300781 19.246094 15.414062 19.257812 C 15.335938 19.34375 15.253906 19.449219 15.179688 19.570312 C 15.152344 19.425781 15.117188 19.308594 15.078125 19.21875 Z M 15.367188 20.246094 C 15.371094 20.257812 15.371094 20.261719 15.371094 20.273438 C 15.363281 20.269531 15.355469 20.269531 15.347656 20.269531 C 15.355469 20.261719 15.363281 20.253906 15.367188 20.246094 Z M 16.523438 20.210938 C 16.515625 20.28125 16.511719 20.351562 16.515625 20.417969 C 16.445312 20.40625 16.375 20.398438 16.304688 20.390625 C 16.386719 20.328125 16.460938 20.265625 16.523438 20.210938 Z M 22.398438 19.5625 C 22.480469 19.554688 22.5625 19.546875 22.640625 19.539062 C 22.621094 19.578125 22.605469 19.617188 22.59375 19.652344 C 22.554688 19.785156 22.527344 19.976562 22.519531 20.179688 C 22.453125 20.183594 22.386719 20.1875 22.320312 20.191406 C 22.417969 20.007812 22.445312 19.761719 22.398438 19.5625 Z M 26.136719 19.550781 C 26.105469 19.398438 26.066406 19.273438 26.027344 19.167969 C 26.183594 19.152344 26.34375 19.140625 26.503906 19.128906 C 26.363281 19.25 26.261719 19.414062 26.136719 19.550781 Z M 24.679688 19.503906 C 24.660156 19.433594 24.636719 19.371094 24.617188 19.308594 C 24.6875 19.300781 24.757812 19.292969 24.832031 19.285156 C 24.78125 19.355469 24.730469 19.425781 24.679688 19.503906 Z M 25.238281 20.058594 C 25.246094 20.078125 25.25 20.097656 25.253906 20.113281 C 25.238281 20.113281 25.222656 20.113281 25.203125 20.113281 C 25.21875 20.097656 25.230469 20.078125 25.238281 20.058594 Z M 26.988281 19.714844 C 27.097656 19.554688 27.121094 19.253906 27.019531 19.089844 C 27.246094 19.074219 27.46875 19.054688 27.695312 19.035156 C 27.710938 19.085938 27.738281 19.136719 27.769531 19.183594 C 27.847656 19.417969 27.894531 19.660156 27.945312 19.902344 C 27.703125 19.953125 27.453125 19.992188 27.203125 20.015625 C 27.050781 20.035156 26.898438 20.050781 26.746094 20.0625 C 26.839844 19.945312 26.921875 19.828125 26.988281 19.714844 Z M 29.734375 19.230469 C 29.679688 19.070312 29.609375 18.914062 29.566406 18.75 C 29.808594 18.695312 30.046875 18.628906 30.28125 18.550781 C 30.320312 18.539062 30.355469 18.527344 30.390625 18.519531 C 30.386719 18.734375 30.433594 18.980469 30.5625 19.246094 C 30.300781 19.320312 30.039062 19.390625 29.777344 19.457031 C 29.78125 19.375 29.765625 19.296875 29.734375 19.230469 Z M 10.773438 11.511719 C 11.960938 9.949219 13.492188 8.609375 15.332031 7.871094 C 16.445312 7.464844 17.625 7.308594 18.800781 7.203125 C 19.898438 7.074219 20.996094 6.898438 22.105469 6.90625 C 22.898438 6.882812 23.664062 7.109375 24.421875 7.324219 C 25.75 7.640625 27.015625 8.148438 28.296875 8.609375 C 29.378906 8.976562 30.316406 9.679688 31.089844 10.511719 C 31.90625 11.535156 32.445312 12.757812 32.875 13.988281 C 33.519531 15.5 33.355469 15.765625 31.925781 16.488281 C 30.472656 17.292969 28.894531 17.820312 27.28125 18.207031 C 24.917969 18.832031 22.46875 18.171875 20.074219 18.136719 C 18.0625 18.105469 16.027344 18.285156 14.058594 17.75 C 12.3125 17.417969 10.511719 17.054688 8.980469 16.117188 C 8.8125 14.410156 9.691406 12.773438 10.773438 11.511719 Z M 9.09375 22.300781 C 9.128906 22.222656 9.167969 22.140625 9.195312 22.054688 C 9.199219 22.054688 9.207031 22.054688 9.210938 22.054688 C 10.957031 21.789062 10.628906 24 12.632812 23.464844 C 13.074219 23.378906 13.421875 23.070312 13.824219 22.886719 C 14.734375 22.613281 15.390625 23.183594 16.199219 23.472656 C 16.625 23.613281 17.085938 23.601562 17.53125 23.574219 C 17.492188 23.582031 17.449219 23.585938 17.40625 23.59375 C 17.082031 23.65625 16.75 23.699219 16.421875 23.722656 C 16.199219 23.582031 15.941406 23.640625 15.6875 23.769531 C 15.171875 23.789062 14.652344 23.804688 14.136719 23.851562 C 13.664062 23.882812 13.191406 23.914062 12.71875 23.9375 C 12.605469 23.898438 12.492188 23.910156 12.386719 23.953125 C 11.039062 24.019531 9.691406 24.054688 8.34375 24.121094 C 8.617188 23.523438 8.839844 22.90625 9.09375 22.300781 Z M 31.753906 23.382812 C 31.605469 23.4375 31.457031 23.492188 31.308594 23.542969 C 31.308594 23.539062 31.308594 23.539062 31.308594 23.539062 C 31.402344 23.367188 31.378906 23.167969 31.324219 22.984375 C 31.460938 23.007812 31.601562 23.03125 31.742188 23.050781 C 31.726562 23.167969 31.730469 23.28125 31.753906 23.382812 Z M 20.003906 24.46875 C 20.054688 24.460938 20.105469 24.453125 20.15625 24.445312 C 20.113281 24.503906 20.078125 24.558594 20.046875 24.605469 C 20.035156 24.558594 20.019531 24.511719 20.003906 24.46875 Z M 21.207031 24.246094 C 21.214844 24.246094 21.21875 24.242188 21.222656 24.242188 C 21.21875 24.246094 21.214844 24.253906 21.210938 24.257812 C 21.210938 24.253906 21.210938 24.25 21.207031 24.246094 Z M 22.90625 23.996094 C 22.890625 23.953125 22.878906 23.910156 22.863281 23.871094 C 22.921875 23.859375 22.976562 23.847656 23.035156 23.835938 C 22.984375 23.890625 22.941406 23.945312 22.90625 23.996094 Z M 24.296875 23.640625 C 24.3125 23.640625 24.324219 23.640625 24.339844 23.636719 C 24.328125 23.65625 24.320312 23.671875 24.3125 23.6875 C 24.308594 23.671875 24.300781 23.65625 24.296875 23.640625 Z M 18.660156 24.589844 C 18.71875 24.585938 18.78125 24.582031 18.839844 24.578125 C 18.808594 24.625 18.78125 24.671875 18.75 24.71875 C 18.714844 24.679688 18.683594 24.636719 18.660156 24.589844 Z M 12.003906 25.074219 C 12.035156 25.089844 12.066406 25.101562 12.105469 25.105469 C 11.96875 25.105469 11.828125 25.109375 11.679688 25.113281 C 11.789062 25.101562 11.898438 25.089844 12.003906 25.074219 Z M 13.964844 25.253906 C 13.863281 25.25 13.761719 25.242188 13.660156 25.238281 C 13.761719 25.175781 13.863281 25.164062 13.964844 25.253906 Z M 15.34375 25.09375 C 15.496094 25.019531 15.691406 24.773438 15.859375 24.84375 C 15.9375 24.980469 16.015625 25.097656 16.089844 25.199219 C 15.789062 25.195312 15.492188 25.199219 15.191406 25.207031 C 15.242188 25.171875 15.292969 25.132812 15.34375 25.09375 Z M 17.71875 25.0625 C 17.761719 25.128906 17.800781 25.199219 17.839844 25.265625 C 17.726562 25.261719 17.613281 25.257812 17.5 25.253906 C 17.570312 25.195312 17.644531 25.132812 17.71875 25.0625 Z M 19.339844 24.957031 C 19.390625 25.042969 19.421875 25.144531 19.457031 25.242188 C 19.355469 25.25 19.253906 25.257812 19.15625 25.261719 C 19.226562 25.15625 19.289062 25.050781 19.339844 24.957031 Z M 20.542969 24.914062 C 20.5625 25 20.582031 25.070312 20.609375 25.128906 C 20.519531 25.140625 20.429688 25.148438 20.339844 25.160156 C 20.414062 25.074219 20.480469 24.984375 20.542969 24.914062 Z M 21.863281 24.699219 C 21.882812 24.792969 21.90625 24.878906 21.933594 24.953125 C 21.808594 24.972656 21.683594 24.988281 21.558594 25.007812 C 21.675781 24.902344 21.78125 24.789062 21.863281 24.699219 Z M 29.773438 23.984375 C 29.660156 24.011719 29.546875 24.035156 29.433594 24.058594 C 29.503906 23.9375 29.5625 23.816406 29.601562 23.707031 C 29.65625 23.824219 29.714844 23.914062 29.773438 23.984375 Z M 30.820312 23.699219 C 30.777344 23.714844 30.734375 23.726562 30.691406 23.738281 C 30.726562 23.691406 30.761719 23.640625 30.796875 23.589844 C 30.800781 23.632812 30.808594 23.671875 30.820312 23.699219 Z M 30.410156 23.132812 C 30.375 22.996094 30.328125 22.882812 30.28125 22.792969 C 30.414062 22.8125 30.546875 22.835938 30.679688 22.863281 C 30.574219 22.953125 30.480469 23.058594 30.410156 23.132812 Z M 28.890625 23.28125 C 28.855469 23.179688 28.820312 23.09375 28.777344 23.023438 C 28.914062 22.90625 29.066406 22.804688 29.320312 22.757812 C 29.164062 22.902344 29.015625 23.089844 28.890625 23.28125 Z M 25.605469 23.890625 C 25.523438 23.695312 25.535156 23.46875 25.46875 23.269531 C 25.621094 23.324219 25.777344 23.382812 25.9375 23.4375 C 25.8125 23.578125 25.699219 23.738281 25.605469 23.890625 Z M 18.328125 23.421875 C 18.542969 23.34375 18.75 23.242188 18.964844 23.15625 C 19.199219 23.105469 19.425781 23.113281 19.644531 23.152344 C 19.203125 23.242188 18.765625 23.335938 18.328125 23.421875 Z M 33.429688 27.410156 C 32.496094 28.269531 31.179688 28.359375 30.019531 28.722656 C 28.699219 28.945312 27.410156 29.296875 26.097656 29.53125 C 24.292969 29.726562 22.472656 29.597656 20.675781 29.84375 C 18.886719 30.0625 17.082031 30.59375 15.285156 30.140625 C 13.777344 29.660156 12.144531 29.46875 10.800781 28.585938 C 10.125 28.089844 9.292969 27.167969 9.296875 26.289062 C 9.292969 26.113281 9.371094 25.96875 9.472656 25.832031 C 9.601562 26.046875 9.828125 26.214844 10.164062 26.285156 C 10.8125 26.398438 11.472656 26.339844 12.125 26.363281 C 12.539062 26.414062 12.957031 26.402344 13.375 26.417969 C 13.746094 26.445312 14.117188 26.421875 14.484375 26.378906 C 15.226562 26.308594 15.976562 26.390625 16.71875 26.339844 C 17.945312 26.242188 19.164062 26.085938 20.390625 26.003906 C 21.492188 26 22.589844 26.050781 23.691406 26.039062 C 24.921875 25.945312 26.160156 25.808594 27.371094 25.566406 C 27.96875 25.417969 28.582031 25.320312 29.1875 25.214844 C 29.644531 25.148438 30.109375 25.160156 30.558594 25.035156 C 31.335938 24.914062 32.113281 24.75 32.601562 24.324219 C 32.941406 24.492188 33.269531 24.6875 33.542969 24.957031 C 34.175781 25.652344 34.203125 26.808594 33.429688 27.410156 Z M 34.835938 19.769531 C 34.425781 19.691406 33.957031 19.695312 33.695312 20.078125 C 33.328125 20.515625 33.347656 21.097656 33.433594 21.628906 C 32.363281 21.863281 31.277344 21.542969 30.199219 21.570312 C 29.164062 21.585938 28.914062 21.84375 28.277344 22.59375 C 28.097656 22.753906 27.859375 22.800781 27.628906 22.839844 C 27.160156 22.976562 26.667969 22.929688 26.234375 22.703125 C 25.363281 22.222656 24.34375 21.875 23.367188 22.253906 C 23.019531 22.382812 22.679688 22.65625 22.289062 22.507812 C 21.578125 22.171875 20.90625 21.683594 20.085938 21.65625 C 19.445312 21.578125 18.886719 21.898438 18.367188 22.234375 C 17.710938 22.496094 16.910156 22.546875 16.308594 22.113281 C 15.570312 21.625 15.054688 21.277344 14.117188 21.453125 C 13.648438 21.53125 13.304688 21.902344 12.867188 22.054688 C 12.25 22.300781 11.824219 22.121094 11.339844 21.707031 C 10.355469 20.675781 8.878906 21.324219 7.6875 21.523438 C 7.1875 21.539062 6.597656 21.734375 6.144531 21.457031 C 6.515625 20.957031 7.140625 20.75 7.609375 20.367188 C 7.96875 20.054688 8.261719 19.359375 7.816406 19 C 7.667969 18.898438 7.511719 18.816406 7.351562 18.734375 C 7.621094 18.667969 7.910156 18.636719 8.183594 18.695312 C 8.355469 18.75 8.515625 18.90625 8.707031 18.859375 C 8.761719 18.84375 8.808594 18.816406 8.855469 18.785156 C 8.898438 19.128906 8.988281 19.46875 9.214844 19.734375 C 9.683594 20.195312 10.292969 20.507812 10.910156 20.726562 C 12.109375 21.027344 13.34375 21.234375 14.578125 21.34375 C 15.640625 21.421875 16.710938 21.375 17.773438 21.367188 C 18.984375 21.355469 20.1875 21.449219 21.394531 21.535156 C 23.289062 21.726562 25.1875 21.457031 27.054688 21.148438 C 28.226562 20.996094 29.417969 20.949219 30.574219 20.695312 C 31.410156 20.480469 32.207031 20.136719 32.945312 19.695312 C 33.484375 19.316406 33.761719 18.582031 33.636719 17.9375 C 33.605469 17.796875 33.472656 17.417969 33.3125 17.191406 C 33.398438 17.1875 33.480469 17.1875 33.554688 17.203125 C 34.117188 17.253906 34.679688 17.179688 35.234375 17.28125 C 34.953125 17.363281 34.691406 17.546875 34.628906 17.847656 C 34.480469 18.402344 35.691406 18.953125 35.816406 19.582031 C 35.574219 19.808594 35.148438 19.746094 34.835938 19.769531 Z M 16.207031 9.992188 C 16.558594 9.714844 16.84375 9.273438 17.285156 9.148438 C 17.796875 9.1875 17.707031 9.96875 17.445312 10.25 C 17.257812 10.386719 17.066406 10.515625 16.914062 10.699219 C 16.710938 10.851562 16.550781 11.171875 16.273438 11.148438 C 15.835938 10.976562 15.949219 10.28125 16.207031 9.992188 Z M 20.382812 8.324219 C 22.253906 8.914062 21.234375 10.574219 20.765625 10.046875 C 20.589844 9.800781 20.308594 9.683594 20.046875 9.546875 C 19.308594 9.546875 19.671875 7.980469 20.382812 8.324219 Z M 22.527344 11.148438 C 22.257812 10.753906 22.492188 10.246094 22.738281 9.902344 C 22.914062 9.699219 23.039062 9.261719 23.386719 9.382812 C 23.859375 9.753906 23.476562 10.4375 23.1875 10.8125 C 23.089844 11.0625 22.792969 11.449219 22.527344 11.148438 Z M 25.574219 10.882812 C 25.183594 10.34375 26.214844 8.964844 26.515625 9.890625 C 26.578125 10.203125 26.488281 10.609375 26.195312 10.773438 C 26.054688 10.996094 25.734375 11.195312 25.574219 10.882812 Z M 18.457031 11.398438 C 18.46875 11.242188 18.519531 11.082031 18.609375 10.953125 C 18.671875 10.863281 18.773438 10.757812 18.894531 10.757812 C 19.179688 10.757812 19.238281 11.117188 19.21875 11.339844 C 19.207031 11.496094 19.15625 11.652344 19.066406 11.78125 C 19.003906 11.871094 18.902344 11.976562 18.785156 11.976562 C 18.496094 11.976562 18.4375 11.617188 18.457031 11.398438 Z M 26.773438 11.242188 C 26.785156 11.085938 26.835938 10.925781 26.925781 10.796875 C 26.984375 10.710938 27.089844 10.601562 27.207031 10.601562 C 27.492188 10.601562 27.554688 10.960938 27.535156 11.183594 C 27.519531 11.339844 27.472656 11.496094 27.382812 11.625 C 27.320312 11.714844 27.214844 11.820312 27.097656 11.820312 C 26.8125 11.820312 26.753906 11.460938 26.773438 11.242188 Z M 26.773438 11.242188 " fill-opacity="1" fill-rule="nonzero"/></g><g fill="#aedfc1" fill-opacity="1"><g transform="translate(38.699083, 28.79209)"><g><path d="M 2.78125 -1.421875 C 2.78125 -1.578125 2.71875 -1.710938 2.59375 -1.828125 C 2.476562 -1.953125 2.34375 -2.015625 2.1875 -2.015625 L 1.5 -2.015625 L 1.5 -0.84375 L 2.1875 -0.84375 C 2.34375 -0.84375 2.476562 -0.898438 2.59375 -1.015625 C 2.71875 -1.128906 2.78125 -1.265625 2.78125 -1.421875 Z M 2.4375 -3.453125 C 2.4375 -3.609375 2.378906 -3.738281 2.265625 -3.84375 C 2.160156 -3.957031 2.03125 -4.015625 1.875 -4.015625 L 1.5 -4.015625 L 1.5 -2.890625 L 1.875 -2.890625 C 2.03125 -2.890625 2.160156 -2.945312 2.265625 -3.0625 C 2.378906 -3.175781 2.4375 -3.304688 2.4375 -3.453125 Z M 3.875 -1.390625 C 3.875 -0.972656 3.742188 -0.632812 3.484375 -0.375 C 3.222656 -0.125 2.859375 0 2.390625 0 L 0.421875 0 L 0.421875 -4.859375 L 2.109375 -4.859375 C 2.378906 -4.859375 2.613281 -4.800781 2.8125 -4.6875 C 3.019531 -4.582031 3.179688 -4.4375 3.296875 -4.25 C 3.410156 -4.070312 3.46875 -3.875 3.46875 -3.65625 C 3.46875 -3.40625 3.414062 -3.1875 3.3125 -3 C 3.207031 -2.820312 3.066406 -2.695312 2.890625 -2.625 C 3.160156 -2.5625 3.390625 -2.421875 3.578125 -2.203125 C 3.773438 -1.992188 3.875 -1.722656 3.875 -1.390625 Z M 3.875 -1.390625 "/></g></g></g><g fill="#aedfc1" fill-opacity="1"><g transform="translate(48.372955, 28.79209)"><g><path d="M 3.265625 -4.859375 L 4.34375 -4.859375 L 4.34375 -1.890625 C 4.34375 -1.242188 4.164062 -0.753906 3.8125 -0.421875 C 3.457031 -0.0859375 2.960938 0.078125 2.328125 0.078125 C 1.691406 0.078125 1.195312 -0.0859375 0.84375 -0.421875 C 0.5 -0.753906 0.328125 -1.242188 0.328125 -1.890625 L 0.328125 -4.859375 L 1.390625 -4.859375 L 1.390625 -2.046875 C 1.390625 -1.710938 1.453125 -1.453125 1.578125 -1.265625 C 1.710938 -1.085938 1.960938 -1 2.328125 -1 C 2.703125 -1 2.953125 -1.085938 3.078125 -1.265625 C 3.203125 -1.453125 3.265625 -1.710938 3.265625 -2.046875 Z M 3.265625 -4.859375 "/></g></g></g><g fill="#aedfc1" fill-opacity="1"><g transform="translate(58.770041, 28.79209)"><g><path d="M 1.5 -1.734375 L 1.5 0 L 0.421875 0 L 0.421875 -4.859375 L 2.25 -4.859375 C 2.507812 -4.859375 2.753906 -4.789062 2.984375 -4.65625 C 3.210938 -4.53125 3.394531 -4.347656 3.53125 -4.109375 C 3.675781 -3.878906 3.75 -3.613281 3.75 -3.3125 C 3.75 -3.03125 3.695312 -2.785156 3.59375 -2.578125 C 3.488281 -2.367188 3.351562 -2.195312 3.1875 -2.0625 C 3.019531 -1.9375 2.835938 -1.84375 2.640625 -1.78125 L 4.03125 0 L 2.671875 0 L 1.515625 -1.734375 Z M 2.078125 -4.015625 L 1.5 -4.015625 L 1.5 -2.578125 L 2.078125 -2.578125 C 2.234375 -2.578125 2.378906 -2.640625 2.515625 -2.765625 C 2.648438 -2.890625 2.71875 -3.070312 2.71875 -3.3125 C 2.71875 -3.53125 2.648438 -3.703125 2.515625 -3.828125 C 2.378906 -3.953125 2.234375 -4.015625 2.078125 -4.015625 Z M 2.078125 -4.015625 "/></g></g></g><g fill="#aedfc1" fill-opacity="1"><g transform="translate(68.443914, 28.79209)"><g><path d="M 2.859375 -3.9375 C 2.597656 -3.9375 2.359375 -3.863281 2.140625 -3.71875 C 1.929688 -3.582031 1.765625 -3.398438 1.640625 -3.171875 C 1.515625 -2.941406 1.453125 -2.691406 1.453125 -2.421875 C 1.453125 -2.148438 1.515625 -1.894531 1.640625 -1.65625 C 1.765625 -1.425781 1.929688 -1.242188 2.140625 -1.109375 C 2.359375 -0.972656 2.597656 -0.90625 2.859375 -0.90625 C 3.015625 -0.90625 3.179688 -0.925781 3.359375 -0.96875 C 3.535156 -1.007812 3.695312 -1.09375 3.84375 -1.21875 C 4 -1.351562 4.117188 -1.539062 4.203125 -1.78125 L 2.96875 -1.78125 L 2.96875 -2.59375 L 5.359375 -2.59375 L 5.359375 -2.4375 C 5.359375 -2.09375 5.289062 -1.769531 5.15625 -1.46875 C 5.03125 -1.164062 4.851562 -0.894531 4.625 -0.65625 C 4.394531 -0.425781 4.128906 -0.242188 3.828125 -0.109375 C 3.535156 0.015625 3.210938 0.078125 2.859375 0.078125 C 2.515625 0.078125 2.191406 0.0078125 1.890625 -0.125 C 1.585938 -0.257812 1.320312 -0.441406 1.09375 -0.671875 C 0.863281 -0.898438 0.679688 -1.164062 0.546875 -1.46875 C 0.421875 -1.769531 0.359375 -2.09375 0.359375 -2.4375 C 0.359375 -2.78125 0.421875 -3.101562 0.546875 -3.40625 C 0.679688 -3.707031 0.863281 -3.972656 1.09375 -4.203125 C 1.320312 -4.429688 1.585938 -4.609375 1.890625 -4.734375 C 2.191406 -4.867188 2.515625 -4.9375 2.859375 -4.9375 C 3.222656 -4.9375 3.5625 -4.863281 3.875 -4.71875 C 4.195312 -4.570312 4.476562 -4.367188 4.71875 -4.109375 C 4.957031 -3.859375 5.128906 -3.566406 5.234375 -3.234375 L 4.0625 -3.234375 C 3.9375 -3.484375 3.765625 -3.660156 3.546875 -3.765625 C 3.328125 -3.878906 3.097656 -3.9375 2.859375 -3.9375 Z M 2.859375 -3.9375 "/></g></g></g><g fill="#aedfc1" fill-opacity="1"><g transform="translate(79.786194, 28.79209)"><g><path d="M 3.25 -0.96875 L 3.25 0 L 0.421875 0 L 0.421875 -4.859375 L 3.25 -4.859375 L 3.25 -3.890625 L 1.5 -3.890625 L 1.5 -2.921875 L 3.171875 -2.921875 L 3.171875 -1.953125 L 1.5 -1.953125 L 1.5 -0.96875 Z M 3.25 -0.96875 "/></g></g></g><g fill="#aedfc1" fill-opacity="1"><g transform="translate(89.195126, 28.79209)"><g><path d="M 1.5 -1.734375 L 1.5 0 L 0.421875 0 L 0.421875 -4.859375 L 2.25 -4.859375 C 2.507812 -4.859375 2.753906 -4.789062 2.984375 -4.65625 C 3.210938 -4.53125 3.394531 -4.347656 3.53125 -4.109375 C 3.675781 -3.878906 3.75 -3.613281 3.75 -3.3125 C 3.75 -3.03125 3.695312 -2.785156 3.59375 -2.578125 C 3.488281 -2.367188 3.351562 -2.195312 3.1875 -2.0625 C 3.019531 -1.9375 2.835938 -1.84375 2.640625 -1.78125 L 4.03125 0 L 2.671875 0 L 1.515625 -1.734375 Z M 2.078125 -4.015625 L 1.5 -4.015625 L 1.5 -2.578125 L 2.078125 -2.578125 C 2.234375 -2.578125 2.378906 -2.640625 2.515625 -2.765625 C 2.648438 -2.890625 2.71875 -3.070312 2.71875 -3.3125 C 2.71875 -3.53125 2.648438 -3.703125 2.515625 -3.828125 C 2.378906 -3.953125 2.234375 -4.015625 2.078125 -4.015625 Z M 2.078125 -4.015625 "/></g></g></g></svg>